<svg xmlns="http://www.w3.org/2000/svg" width="496.68" height="501.64"><defs><linearGradient x1="0" y1="0" x2="1" y2="0" gradientUnits="userSpaceOnUse" gradientTransform="matrix(180.40448,-128.62921,-128.62921,-180.40448,93.411888,393.33563)" spreadMethod="pad" id="A"><stop offset="0" stop-color="#2aa4dd"/><stop offset="1" stop-color="#5bcaee"/></linearGradient><clipPath id="B"><path d="M0 376.23h372.51V0H0z" transform="translate(-319.8 -248.51)"/></clipPath><clipPath id="C"><path d="M0 376.23h372.51V0H0z" transform="translate(-210.3 -334.57)"/></clipPath><clipPath id="D"><path d="M0 376.23h372.51V0H0z" transform="translate(-198.89 -285.78)"/></clipPath><linearGradient x1="0" y1="0" x2="1" y2="0" gradientUnits="userSpaceOnUse" gradientTransform="matrix(191.73033,110.42696,110.42696,-191.73033,22.66822,111.96849)" spreadMethod="pad" id="E"><stop offset="0" stop-color="#a0dbe6"/><stop offset=".219" stop-color="#a0dbe6"/><stop offset=".6" stop-color="#f6f9fb"/></linearGradient><linearGradient x1="0" y1="0" x2="1" y2="0" gradientUnits="userSpaceOnUse" gradientTransform="matrix(179.5955,106.78651,106.78651,-179.5955,31.294989,92.543297)" spreadMethod="pad" id="F"><stop offset="0" stop-color="#2aa4dd"/><stop offset="1" stop-color="#5bcaee"/></linearGradient><clipPath id="G"><path d="M0 376.23h372.51V0H0z" transform="translate(-213.37 -182)"/></clipPath></defs><path d="M207.8 295.35l21.26-15.2h0l22.68-16.62h0c8.02-5.75 16.19-11.51 25.59-14.81h0c9.44-3.32 19.64-4.5 29.58-3.26h0a60.16 60.16 0 0 1 12.89 3.05h0c.1.04.21.07.31.11h0c-7.34 3.43-15.37 6.69-22.71 10.12h0l-59.63 28.24h0l-20.42 10.11h0c-1.16.52-2.66 1.39-3.97 1.39h0c-2.36 0-5.58-3.13-5.58-3.13" transform="matrix(1.333333 0 0 -1.333333 0 501.64)" fill="url(#A)"/><g fill="#0e2132"><path d="M0 0l.31.11C-7.03 3.54-15.06 6.8-22.4 10.23l-59.63 28.24-20.42 10.11c-1.16.52-2.66 1.39-3.97 1.39-2.36 0-5.58-3.13-5.58-3.13l21.26-15.2 22.68-16.62C-60.04 9.27-51.87 3.51-42.47.21c9.44-3.32 19.64-4.5 29.58-3.26A60.16 60.16 0 0 1 0 0m-112.11 63.16c5.58 1.18 11.1-.16 16.25-2.35 7.79-3.31 14.98-7.87 22.74-11.26l54.25-25.61 20.48-9.77 17.72-8.15c4.58-1.99 9.65-3.6 14.77-3.29 2.47.14 4.92.76 7.29 1.6 7.32-20.18 11.32-41.98 11.32-64.73 0-103.89-83.39-188.11-186.26-188.11-39.25 0-75.66 12.26-105.68 33.21 6.14 12.12 14.84 23.21 24.63 32.07 5.95 5.37 12.53 10.03 19.62 13.78 17.49 9.22 36.54 14.96 55.69 19.56 21.88 5.26 44.08 13.83 61.06 29.37 18.56 16.99 30.6 42.23 29.96 67.59-.32 12.72-3.72 25.31-10.15 36.31-6.37 10.91-16.02 19.45-25.79 27.26-5.94 4.74-11.98 9.33-18.17 13.73-6.1 4.33-12.89 7.99-18.53 12.9-3.63 3.15-6.59 7.04-5.68 12.11 1.27 7.01 7.76 12.36 14.48 13.78" transform="matrix(1.333333 0 0 -1.333333 426.4 170.29333)" clip-path="url(#B)"/><path d="M0 0c4.27 0 7.73-3.52 7.73-7.86S4.27-15.72 0-15.72-7.74-12.2-7.74-7.86-4.27 0 0 0" transform="matrix(1.333333 0 0 -1.333333 280.4 55.546667)" clip-path="url(#C)"/></g><path d="M0 0c5.64-4.91 12.43-8.57 18.53-12.9 6.19-4.4 12.23-8.99 18.17-13.73 9.77-7.81 19.42-16.35 25.79-27.26 6.43-11 9.83-23.59 10.15-36.31.64-25.36-11.4-50.6-29.96-67.59C25.7-173.33 3.5-181.9-18.38-187.16c-19.15-4.6-38.2-10.34-55.69-19.56-7.09-3.75-13.67-8.41-19.62-13.78-9.79-8.86-18.49-19.95-24.63-32.07-2.84-5.59-5.13-11.39-6.73-17.3-2.56 11.81-1.48 24.01 3.18 35.16 5.47 13.08 15.07 24.05 25.66 33.27 2.74 2.27 5.66 4.33 8.67 6.25 8.64 5.51 17.77 10.26 27.11 14.47 4.84 2.18 9.74 4.23 14.65 6.26 6.15 2.54 12.32 4.93 18.16 8.14l3.32 1.9c16.33 9.71 31.07 22.37 42.3 37.74 2.39 3.27 4.6 6.65 6.49 10.23l.66 1.29c.52 1.02 1 2.04 1.47 3.08 3.92 8.75 6.2 18.34 6.24 27.95.09 18.97-10.22 33.72-24.39 45.33-5.8 4.75-12.01 8.98-17.98 13.51C-19.96-17.36-31.04-7.74-34.5 5.46c-2.11 8.03-1.16 16.85 3.58 23.79 1.05 1.55 2.25 2.99 3.56 4.33.97.99 2.16 2.14 4.33 3.8-19.1-4.21-27.69-16.49-29.07-34.31-11.32 19.1-6.34 32.53 9.63 45.72-1.92-.59-3.88-1.07-5.86-1.38a30.5 30.5 0 0 0-1.89-.24c-7.38-.74-14.48 1.48-19.65 6.86-2.02 2.11-4.16 4.77-5.29 7.47.89-.55 3.02-1.23 3.29-1.3 4.64-1.24 6.91-1.27 11.73-1.15 14.63.38 28.59 6.47 43.07 8.25 16.08 1.99 35.18 1.29 47.08-11.31 4.97-5.27 7.76-12.55 8.49-19.69l.33-3.15 45.46-21.8 74.58-35.54 11.11-5.45c-2.45-1.16-5.03-2.37-7.68-3.3-2.37-.84-4.82-1.46-7.29-1.6-5.12-.31-10.19 1.3-14.77 3.29-5.97 2.58-11.85 5.36-17.72 8.15l-20.48 9.77-54.25 25.61c-7.76 3.39-14.95 7.95-22.74 11.26-5.15 2.19-10.67 3.53-16.25 2.35-6.72-1.42-13.21-6.77-14.48-13.78C-6.59 7.04-3.63 3.15 0 0m3.67 40.93c0-4.34 3.47-7.86 7.74-7.86s7.73 3.52 7.73 7.86-3.46 7.86-7.73 7.86-7.74-3.52-7.74-7.86" transform="matrix(1.333333 0 0 -1.333333 265.18667 120.6)" clip-path="url(#D)" fill="#f5f7fa"/><g transform="matrix(1.333333 0 0 -1.333333 0 501.64)"><path d="M168.21 229.91c-13.39-3.17-26.03-9.55-37.99-16.22h0c-13.17-7.35-25.66-15.9-37.06-25.78h0c-13.84-12-26.05-26.06-34.56-42.36h0c-3.86-7.41-6.91-15.24-8.91-23.35h0c4.65 8.86 9.67 17.54 15.23 25.86h0c6.09 9.09 13.08 17.57 20.78 25.35h0c20.58 20.79 45.89 37.18 73.23 47.55h0c4.15 1.58 8.39 2.93 12.72 3.89h0c12.3 2.73 26.23 2.07 34.7-8.48h0c7.64-9.53 8.09-22.75 7.02-34.37h0c5.04 11.76 6.7 25.26-1.61 35.83h0c-1.79 2.27-3.82 4.35-6.09 6.14h0c-6.959 5.494-15.247 7.638-23.716 7.638h0c-4.589 0-9.231-.629-13.744-1.698" fill="url(#E)"/><path d="M171.65 224.85c-4.33-.96-8.57-2.31-12.72-3.89h0c-27.34-10.37-52.65-26.76-73.23-47.55h0c-7.7-7.78-14.69-16.26-20.78-25.35h0c-5.56-8.32-10.58-17-15.23-25.86h0a76.43 76.43 0 0 1-.96-4.24h0a95.66 95.66 0 0 1-1.76-14.8h0c-.09-2.55-.09-5.1.02-7.64h0a91.25 91.25 0 0 1 .26-4.04h0c.07-.87.62-2.63.35-3.44h0l2.42 7.31h0c2.67 7.3 6.1 14.5 10.16 21.08h0c7.43 12.02 17.23 22.83 29.07 30.53h0c12.64 8.23 25.96 14.13 40.24 18.97h0c11.49 3.9 23.28 7.05 34.68 11.21h0c10.35 3.79 20.49 9 27.84 17.21h0c-3.4-10.55-11.18-19.28-20.26-25.63h0c-9.09-6.35-19.48-10.55-29.9-14.34h0c-18.76-6.84-37.05-13.61-52.23-27.08h0c-20.91-18.57-31.06-44.15-26.49-71.95h0c-.32 1.92 2.6 6.31 3.46 8.02h0a85.81 85.81 0 0 0 4.62 8.07h0c3.19 4.94 6.84 9.58 10.83 13.89h0c8.2 8.85 17.72 16.49 28.15 22.57h0c11.02 6.43 23.27 10.55 34.95 15.59h0c11.93 5.15 23.73 10.85 34.31 18.46h0c10.97 7.88 20.6 17.59 27.97 28.94h0c2.2 3.39 4.27 7.15 5.95 11.11h0c1.07 11.62.62 24.84-7.02 34.37h0c-5.841 7.276-14.279 9.848-22.99 9.848h0c-3.918 0-7.893-.521-11.71-1.368" fill="url(#F)"/></g><path d="M0 0c5.04 11.76 6.7 25.26-1.61 35.83-1.79 2.27-3.82 4.35-6.09 6.14-10.73 8.47-24.62 8.98-37.46 5.94-13.39-3.17-26.03-9.55-37.99-16.22-13.17-7.35-25.66-15.9-37.06-25.78-13.84-12-26.05-26.06-34.56-42.36-3.86-7.41-6.91-15.24-8.91-23.35a76.43 76.43 0 0 1-.96-4.24 95.66 95.66 0 0 1-1.76-14.8c-.09-2.55-.09-5.1.02-7.64a91.25 91.25 0 0 1 .26-4.04c.07-.87.62-2.63.35-3.44l2.42 7.31c2.67 7.3 6.1 14.5 10.16 21.08 7.43 12.02 17.23 22.83 29.07 30.53 12.64 8.23 25.96 14.13 40.24 18.97 11.49 3.9 23.28 7.05 34.68 11.21 10.35 3.79 20.49 9 27.84 17.21-3.4-10.55-11.18-19.28-20.26-25.63-9.09-6.35-19.48-10.55-29.9-14.34-18.76-6.84-37.05-13.61-52.23-27.08-20.91-18.57-31.06-44.15-26.49-71.95-.32 1.92 2.6 6.31 3.46 8.02a85.81 85.81 0 0 0 4.62 8.07c3.19 4.94 6.84 9.58 10.83 13.89 8.2 8.85 17.72 16.49 28.15 22.57 11.02 6.43 23.27 10.55 34.95 15.59 11.93 5.15 23.73 10.85 34.31 18.46 10.97 7.88 20.6 17.59 27.97 28.94C-3.75-7.72-1.68-3.96 0 0m-56.95 152.57c-15.97-13.19-20.95-26.62-9.63-45.72 1.38 17.82 9.97 30.1 29.07 34.31-2.17-1.66-3.36-2.81-4.33-3.8-1.31-1.34-2.51-2.78-3.56-4.33-4.74-6.94-5.69-15.76-3.58-23.79 3.46-13.2 14.54-22.82 24.99-30.75 5.97-4.53 12.18-8.76 17.98-13.51C8.16 53.37 18.47 38.62 18.38 19.65c-.04-9.61-2.32-19.2-6.24-27.95-.47-1.04-.95-2.06-1.47-3.08-.21-.43-.44-.86-.66-1.29-1.89-3.58-4.1-6.96-6.49-10.23-11.23-15.37-25.97-28.03-42.3-37.74-1.09-.65-2.2-1.28-3.32-1.9-5.84-3.21-12.01-5.6-18.16-8.14l-14.65-6.26c-9.34-4.21-18.47-8.96-27.11-14.47-3.01-1.92-5.93-3.98-8.67-6.25-10.59-9.22-20.19-20.19-25.66-33.27-4.66-11.15-5.74-23.35-3.18-35.16-17.74 13.18-27.2 29.73-28.77 49.5-28.08 32.94-45.07 75.82-45.07 122.7 0 103.9 83.39 188.12 186.25 188.12 77.05 0 143.18-47.25 171.51-114.64l-74.58 35.54-45.46 21.8-.33 3.15c-.73 7.14-3.52 14.42-8.49 19.69-11.9 12.6-31 13.3-47.08 11.31-14.48-1.78-28.44-7.87-43.07-8.25-4.82-.12-7.09-.09-11.73 1.15-.27.07-2.4.75-3.29 1.3 1.13-2.7 3.27-5.36 5.29-7.47 5.17-5.38 12.27-7.6 19.65-6.86a30.5 30.5 0 0 1 1.89.24c1.98.31 3.94.79 5.86 1.38" transform="matrix(1.333333 0 0 -1.333333 284.49333 258.97333)" clip-path="url(#G)" fill="#0e2132"/></svg>
